<svg xmlns="http://www.w3.org/2000/svg" xmlns:xlink="http://www.w3.org/1999/xlink" style="display: none">
    <style type="text/css">
        .st0{display:none;}
        .st1{display:inline;}
    </style>
    <symbol id="icon-chatpal"  x="0px" y="0px" viewBox="0 0 100 100" style="enable-background:new 0 0 100 100;" xml:space="preserve">
        <g class="st0"><g class="st1"><path d="M98.8,52c-0.2-5.4-0.9-12.5-5.5-16.1c-3.1-2.4-7.5-2.5-10,0.3C78.6,28,71.4,21.3,62.4,19.5c0.1,0,0.1,0,0.2-0.1    c1.5-0.5,3.3-0.6,4.7-1.4c0.7-0.4,0.8-1.7,0-2.1c-0.1-0.4-0.3-0.7-0.8-0.8c-16.1-3.7-34.1,0.4-45.2,13.3c-1.8,2.1-3.4,4.4-4.6,6.8    c-1.5-2.1-4.5-2.7-7.2-1.7c-5.6,2.1-7,8.9-7.8,14.2c-0.8,5.6-0.9,12.5,3,17.1c2.9,3.4,7.8,4.7,11.6,2.2c0.7,1.3,1.5,2.5,2.4,3.7    c10.2,13.6,28.2,17.1,44.2,14.6c7-1.1,14.4-3.5,19.6-8.5c2.8-2.7,4.6-6.1,5.7-9.7c1.6,1,3.8,1.1,5.6,0.2    C98.8,64.9,98.9,56.7,98.8,52z M61.2,17.1c-1.3,0.5-2.7,1.1-3.5,2.1c-0.2,0.2-0.3,0.4-0.4,0.6l0,0c-0.2,0.7,0.1,1.5,0.9,1.8    c3.6,1.2,6.9,2.6,10,4.3c-7.8-0.1-16.1,4.6-19.1,11.7c-2.4-6-8.5-10.6-15.1-10.5c-4.1,0.1-8.3,2.2-11.8,5.2    C31.1,20.4,46.5,16.2,61.2,17.1z M11.5,48.3c0.4,0.6,0.6,1.3,0.9,2c-0.2,4.7,0.5,9.4,2.3,13.8c-8.1,4.3-9.7-7.9-9.2-13    c0.2-2.8,0.6-5.6,1.5-8.2c0.4-1.2,0.8-2.7,1.8-3.7c1.3-1.3,4.5-1.7,6.2-0.6c-0.8,2.1-1.5,4.2-1.9,6.3c-0.5-0.5-1-0.9-1.7-1    c-0.8,0-1.2,0.6-1.3,1.3C10,46.4,11,47.4,11.5,48.3z M85.3,61.4C83.1,82.1,56.2,85.4,40,81c-16.8-4.6-27.6-20.7-23.3-37.2    c3.8-4.4,7.3-9.1,12.7-11.8c8.5-4.1,17.1,4,17.9,12.2c0.1,0.8,0.6,1.2,1.1,1.3c0.5,0.5,1.7,0.2,1.9-0.6    c2.3-5.9,4.7-11.3,11.1-13.8c5.8-2.2,10.7-0.2,15.8,2.2c0.7,0.8,1.3,1.7,1.9,2.6C83.9,43.3,86.2,52.8,85.3,61.4z M88.9,63.6    c0.5-2.9,0.5-5.8,0.3-8.7c-0.1-1.2-0.3-2.4-0.5-3.7c0.1-0.3,0.3-0.6,0.4-0.9c0.5-1,1.5-1.7,2-2.7c0.7-1.5-0.7-2.9-2.2-2.2    c-0.5,0.2-0.9,0.6-1.3,1.1c-0.6-2.1-1.4-4.3-2.3-6.3c0,0,0-0.1,0.1-0.1c3.2-6.5,8,1.7,9,4.4c0.9,2.4,1.3,5,1.4,7.5    C95.8,56.2,94.6,65.9,88.9,63.6z"></path><path d="M47.1,63.4c0.8,0.4,1.9,0.2,2.4-0.6c0.4-0.7,0.9-1.4,0.9-2.2c0.1-1.2-1.3-1.8-2.3-1.3c-0.7,0.4-1.2,1.2-1.6,1.8    C45.9,61.7,46.3,62.9,47.1,63.4z"></path><path d="M54.6,63.3c0.7-0.5,1.1-1.5,0.6-2.3c-0.4-0.6-0.8-1.2-1.4-1.6c-0.8-0.6-2.3,0.2-2.2,1.3c0.1,0.8,0.4,1.4,0.8,2    C52.8,63.4,53.9,63.8,54.6,63.3z"></path><path d="M33.4,54.4c0-0.1-0.1-0.3-0.2-0.4c0,0,0-0.1,0-0.1c-0.4-0.7-1-1.3-1.9-1.5c-1.1-0.2-2.2,0-2.9,0.8c-0.8,0.8-1.1,1.9-0.9,3    c0.4,2.2,3.2,3.1,5,1.8c1-0.7,1.4-2,1.1-3.2C33.5,54.6,33.5,54.5,33.4,54.4z"></path><path d="M69.8,53.5c-1.1,0-2.3,0.6-2.8,1.6c-0.5,0.8-0.6,1.9-0.2,2.7c0.1,0.3,0.2,0.6,0.3,0.8c1.2,2.1,4.4,1.9,5.6-0.1    C73.9,56.3,72.3,53.5,69.8,53.5z"></path><path d="M54.4,67.7c-1.9,0.5-3.1,1.7-5.2,1.4c-1.7-0.2-2.8-1.2-4.3-1.8c-0.9-0.4-1.5,0.6-1.4,1.4c0.8,5.4,10.7,6.3,13,1.7    C57.1,68.9,56,67.2,54.4,67.7z"></path></g></g><g class="st0"><g class="st1"><path d="M62.8,20.2c0.1,0,0.1,0,0.2-0.1c1.5-0.5,3.3-0.6,4.7-1.4c0.7-0.4,0.8-1.7,0-2.1c-0.1-0.4-0.3-0.7-0.8-0.8    c-16.1-3.7-34.1,0.4-45.2,13.3C11.5,41,9.4,58.8,19,71.5c10.2,13.6,28.2,17.1,44.2,14.6c7-1.1,14.4-3.5,19.6-8.5    c5.9-5.7,7.5-14,6.8-21.9C88.3,40.9,78.3,23.4,62.8,20.2z M85.7,62.1c-2.2,20.7-29.1,24-45.3,19.6C21.5,76.6,10.2,57,19.2,38.6    c7.9-16.2,25.6-21.8,42.4-20.8c-1.3,0.5-2.7,1.1-3.5,2.1c-0.2,0.2-0.3,0.4-0.4,0.6l0,0c-0.2,0.7,0.1,1.5,0.9,1.8    c8.5,2.9,15.9,6.7,20.9,14.4C84.3,44.1,86.6,53.5,85.7,62.1z"></path><path d="M95,41c0.2,0.1,0.4,0.2,0.6,0.3c0.7,0.4,1.9-0.1,1.8-1c-0.7-5.7-3-10.9-7-15c2.6-3.3,2.7-8.4-0.7-11.7    c-3.1-3.1-7.5-3-10.8-1.1c-4-3.1-8.7-4.4-13.7-4.8C66,6.9,66.8,6,67.7,5.2c1-1,0.3-3-1.2-2.9c-4.6,0.3-10.5,0.9-14.3,3.9    c-2.3-2.7-5.4-4.1-8.9-4.9c-1.3-0.3-2.6,1.1-1.8,2.4C41.7,4,41.8,4.3,42,4.6c-4.6,0.4-9.2,1-13.6,2.4c-0.2,0.1-0.3,0.1-0.5,0.2    c-3.4-2.6-8.6-3-12.2,0c-3.3,2.8-4.3,8.4-2.2,12.1C4.9,24.9,1.8,36.2,1.6,45.8c0,1.3,1.5,1.4,2.2,0.6c0.5-0.7,1.1-1.3,1.7-1.9    c-1.6,8.5-2.7,17.3,0.8,25.4c3.2,7.5,9.5,13,17.1,15.7c0.4,0.1,0.7,0.1,1,0c5.9,7.4,17,11.8,25.9,12.2c0.3,0.4,0.8,0.7,1.4,0.8    c7.6,0.6,15.3-2.2,20.9-7.2c0,0.2,0.1,0.5,0.1,0.7c0.1,0.9,1.4,1.3,2.1,0.9c10-6.4,20.4-17.1,21-29.7c0.7,0.2,1.5-0.1,1.7-0.9    C99.3,55.3,98.2,47.6,95,41z M88.8,19.7c0,2.2-1.5,4.4-4,5.4c-0.5-0.6-1.1-1.3-1.7-1.8C84.7,21.6,86.4,18.3,88.8,19.7z M86.6,15.7    c0.1,0.1,0.3,0.2,0.4,0.3c-0.4,0-0.7,0.1-1.1,0.2c-2.3,0.6-4.2,2.8-5.1,5c-1.2-0.9-2.5-1.8-3.8-2.5C79.3,15.8,83,12.9,86.6,15.7z     M17.8,10c1.9-1.6,4.7-1.9,6.9-0.8c1.7,0.9,2.6,2.5,3.4,4.2c-1.4,0.6-2.8,1.4-4,2.4c-1.2-2.3-3-4.5-5.7-5c-0.4-0.1-0.8-0.1-1.2,0    C17.3,10.5,17.6,10.2,17.8,10z M21.9,17.6c-0.9,0.8-1.9,1.8-2.8,2.8c-1.9-1.7-3.4-4-3.4-6.2C18.1,12.3,20.4,15.3,21.9,17.6z     M95.2,59.1c-0.6-0.4-1.5-0.3-1.7,0.6c-2.6,12.5-8,21.8-18,29.3c0-0.4,0-0.8,0-1.2c0-1.5-1.9-2.3-3-1.2    c-5.9,5.8-12.6,8.3-20.7,8.1c-0.2,0-0.3,0-0.5,0c-0.1-0.1-0.3-0.1-0.4-0.1c-5.1-0.7-9.8-1.8-14.4-4.1c-4.6-2.3-8-5.9-12-9    c-0.7-0.5-1.5-0.3-1.9,0.3c-6.4-2.7-11.7-7.8-14.1-14.4c-3.1-8.4-1.1-17.6,0.6-26c0.2-1.2-1-2.3-2.1-1.6c-1.1,0.7-2,1.4-2.8,2.2    c1.1-8.1,5.7-14.3,10.8-20.8c0.7,0.6,1.5,1.1,2.4,1.4c-0.8,1.2-1.3,2.5-1.3,3.7c0,1,1.2,1.8,2.1,1.2c2.6-1.8,4-5.1,6.4-7.3    c2.7-2.4,6-3.9,9-5.9c0.8-0.6,0.6-2-0.5-2c-0.7,0-1.3,0.1-1.9,0.2c-0.2-0.9-0.4-1.7-0.8-2.4c4.5-1.2,8.9-2.3,13.6-2.7    c0.8-0.1,1.4-0.6,1.4-1.4c0-0.2,0-0.4,0-0.6c2,0.7,3.8,1.7,5.8,2.7c0.1,0.4,0.4,0.8,0.9,0.7c3.5-0.3,6.8-1.5,10.2-2.3    c-0.5,0.6-1,1.1-1.5,1.7c-0.9,1-0.3,2.6,1.1,2.6c5.4,0,10,1.6,14.9,3.6c-0.9,1-1.6,2.1-2,3.5c-1.3-0.5-2,1.5-0.9,2.2    c2.5,1.6,4.9,3.2,7,5.3c2,2,3.3,4.4,5.1,6.5c0.8,0.9,2.1-0.1,1.9-1.1c-0.2-0.9-0.6-1.8-1-2.7c0.9-0.3,1.6-0.8,2.3-1.3    c2.2,3.4,3.9,6.8,5.1,10.6c-0.8-0.4-1.6-0.8-2.4-1.2c-1.3-0.5-2.6,1.3-1.9,2.4C94.2,45,95.7,51.7,95.2,59.1z"></path><path d="M62.4,61.5c-1.1,2.2-1.1,3.8-4,4.2c-2.6,0.4-4.6-0.5-5.2-3c0.3-0.3,0.6-0.6,0.8-0.9c1.2-1.3,2.3-2.6,3.4-4    c1.2-1.7-1.4-3.7-2.8-2.2c-0.8,0.8-1.4,1.7-2.1,2.5c-0.3,0.4-0.7,1.1-1.2,1.6c-0.8-0.6-1.8-1.7-2.3-2.2C47.9,56.8,47,56,46,55.4    c-1-0.6-2.3,0.6-1.6,1.6c1,1.4,2.2,2.6,3.4,3.9c0.6,0.6,1.2,1.5,2,2c-0.4,1.1-0.7,2-1.6,2.8c-1.2,0.9-2.8,1.3-4.2,1.3    c-1.5,0-3.1-0.6-3.8-1.9c-0.6-1-0.4-2.2-0.6-3.4c-0.1-0.6-1-1-1.5-0.6c-1.9,1.3-1.8,3.8-0.9,5.7c1.2,2.3,3.5,3.5,6,3.8    c2.8,0.3,6.7-1,8.7-3.4c1.8,1.6,4.6,2.4,6.8,2.3c2.2-0.1,4.4-1,5.8-2.8c1.3-1.6,1.8-4,0.3-5.6C64,60.5,62.8,60.6,62.4,61.5z"></path><path d="M30.3,48.7c-0.8,0.6-1.3,1.7-1.3,2.7c0,0.8,0.3,1.6,0.8,2.1c0.1,0.1,0.1,0.2,0.2,0.3c0.7,0.8,1.9,1.1,3,0.9    c2.2-0.4,3.3-3,2.3-4.9C34.4,48.1,31.9,47.5,30.3,48.7z"></path><path d="M65.9,50.2c-0.9,0.7-1.4,1.8-1.3,3c0.1,1,0.6,2,1.4,2.5c0.8,0.6,1.8,0.9,2.9,0.7c2.3-0.5,3.2-3.1,2.2-5.1    C70.2,49.2,67.6,48.9,65.9,50.2z"></path></g></g><g class="st0"><g class="st1"><path d="M88.3,55.9c-0.5-5.4-2.1-11.1-4.7-16.4c4.7-4.7,6.4-14.4,1.2-18.9c-4.8-4.2-12.7-2.4-16.2,2.6c-2.2-1.2-4.6-2.1-7.1-2.6    c0.1,0,0.1,0,0.2-0.1c1.5-0.5,3.3-0.6,4.7-1.4c0.7-0.4,0.8-1.7,0-2.1c-0.1-0.4-0.3-0.7-0.8-0.8c-9.7-2.2-20.1-1.6-29.3,2.1    C32.4,12,22.7,11.1,17,15.9c-4.5,3.8-4.9,14.2,0.5,17.4C10,44.9,9.2,60.4,17.7,71.8C27.9,85.4,46,88.9,61.9,86.4    c7-1.1,14.4-3.5,19.6-8.5C87.4,72.2,89,63.9,88.3,55.9z M84.5,62.5c-2.2,20.7-29.1,24-45.3,19.6C20.3,76.9,9,57.4,18,39    c0.9-1.9,2-3.7,3.2-5.4c0,0,0,0,0,0c0.4-0.5,0.5-1.1-0.1-1.5c-2.3-1.8-4.1-5-4.2-8.1c0.6-2,2.5-3.4,4.7-3.1    c2.6,0.4,4.6,2.5,5.1,5.1c0.4,1.9,3.5,0.9,2.7-1.1c-1.6-3.8-4.6-7.2-9.2-6.6c0,0,0,0,0,0c0,0,0,0,0,0c5.2-2.7,10.7-0.7,14.3,3.5    c0.6,0.8,1.7,0.6,2.4,0c7.3-3,15.5-4,23.6-3.5c-1.3,0.5-2.7,1.1-3.5,2.1c-0.2,0.2-0.3,0.4-0.4,0.6l0,0c-0.2,0.7,0.1,1.5,0.9,1.8    c3.6,1.2,6.9,2.6,10,4.3c0.5,0.8,1.6,1.1,2.4,0.4c3.1-3.1,7.5-7.8,12-4.1c-0.6-0.1-1.1-0.1-1.6,0c-3.4,0.5-6,3.3-7.3,6.3    c-0.8,1.8,1.8,3.5,2.7,1.6c0.9-1.9,1.9-3.9,3.9-4.8c1.9-0.8,3.1-0.2,4.4,0.6c0.7,3.8-1.9,8.5-4.3,11c-1,1-0.3,2.6,0.8,3    C83.7,47.7,85.2,55.3,84.5,62.5z"></path><path d="M60.1,62c-0.6,0.9-0.6,1.9-1,2.9c-0.5,1.1-1.4,2.1-2.7,2.4c-1.1,0.3-2.3,0.1-3.1-0.8c-0.7-0.7-0.8-1.7-0.9-2.6    c2.3-0.9,4.8-3.2,5-5.3c0.3-3.1-4.3-3.5-6.4-3.7c-2.2-0.2-7.2-0.1-6.9,3.3c-0.1,0.2-0.1,0.5,0.1,0.8c1.4,1.8,2.5,4.2,4.6,5    c-0.9,2.2-2.4,4-5.1,3.4c-2.7-0.5-3.5-2.7-4.8-4.7c-0.6-0.9-1.9-0.5-2,0.5c-0.4,4.2,4.1,7.9,8.1,7.9c2.2,0,4.3-1.2,5.5-2.9    C51.9,69.9,54,71,56,71c2.1-0.1,4.2-1.2,5.4-2.9c1.2-1.6,2.3-4.3,1-6C61.8,61.2,60.7,61.2,60.1,62z M49.5,61    c-1-0.3-1.9-1.3-2.8-2.2c1-1,5.1-0.9,7-0.2c-0.3,0.5-0.9,0.9-1.2,1.2C51.6,60.7,50.9,61.5,49.5,61z"></path><path d="M37.4,48.2c-0.7-1.1-2-1.6-3.2-1.4c-0.7,0.1-1.3,0.5-1.7,1c-0.7,0.4-1.2,1-1.3,1.8c-0.4,2.3,1.8,4.2,4,3.7    C37.4,52.9,38.6,50.2,37.4,48.2z"></path><path d="M61,48.6c-0.1,0.1-0.1,0.3-0.1,0.5c-1.2,2,0.4,4.7,2.7,4.8c1.2,0.1,2.3-0.6,3-1.5c0.7-1,0.7-2.3,0.2-3.4    C65.7,46.8,62.1,46.2,61,48.6z"></path></g></g><g class="st0"><g class="st1"><path d="M83.3,45.3C89.5,37,91.1,26,91.1,16c0-1-0.8-1.8-1.8-1.8c-9.4,0-18,4.3-24.8,10.6c-1.5-0.6-3-1.1-4.6-1.4    c0.1,0,0.1,0,0.2-0.1c1.5-0.5,3.3-0.6,4.7-1.4c0.7-0.4,0.8-1.7,0-2.1c-0.1-0.4-0.3-0.7-0.8-0.8c-8.8-2-18.2-1.7-26.7,1.1    c-3.3-3.7-7.5-6.2-12.2-7.7c-3.2-1.1-11.1-3.6-14.3-1.6c-3.1,1.9-1.4,7.9-0.9,10.8c0.8,5.4,2.2,11.3,5,16.2    c-6.6,11.3-6.9,25.9,1.2,36.8c10.2,13.6,28.2,17.1,44.2,14.6c7-1.1,14.4-3.5,19.6-8.5c5.9-5.7,7.5-14,6.8-21.9    C86.3,54.3,85.1,49.7,83.3,45.3z M14.3,27.5c-0.7-2.8-3.2-10.1-1.9-13c6.1,4.9,11.8,9.5,16.5,16c1,1.3,3.2,0,2.2-1.3    c-4.3-5.7-9.6-11.5-15.7-15.6c3.3,0.4,8.5,2.4,9.9,3c4,1.7,7.4,4.2,10.3,7.5c1.2,1.3,2.7,0.4,3.1-0.9c6.4-2,13.3-2.7,20.1-2.3    c-1.3,0.5-2.7,1.1-3.5,2.1c-0.2,0.2-0.3,0.4-0.4,0.6l0,0c-0.2,0.7,0.1,1.5,0.9,1.8c2.3,0.8,4.5,1.6,6.6,2.6c0.3,1.1,1.8,1.9,3,0.9    c5.1-4.4,10.4-8.1,16.5-10c-5.2,3.9-9.7,9.6-12.3,14.8c-0.7,1.4,1.3,2.6,2.2,1.3c2.4-3.6,4.7-7.2,7.8-10.3    c2.5-2.6,5.5-4.6,8.2-6.9c0.3,9.9-3.3,18.4-7.5,27.4c-8.7-3.4-23.3-10-29.8-1.3c-2.8-11.1-22.9-8.4-32.4-5.6    C16.9,34.7,15.3,31.2,14.3,27.5z M16,42.4c11.4-1,25.1-7.6,32.8,4.3c0.3,0.5,1,0.6,1.4,0.3c0.2,0,0.3-0.1,0.4-0.2    c9.1-7.3,20.5-1.5,30.2,2c0.8,2.3,1.4,4.8,1.7,7.2c-4.1,5.4-9.1,9.7-16.4,9.3c-8-0.5-11.2-6.3-15.2-12.1c-0.6-0.9-2-0.7-2.3,0.2    c-5.9,3.4-10.2,8.2-17.3,9.8c-4,0.9-8.2,0.8-11.8-1.2c-3.2-1.8-4.5-4.5-6.3-7.3C13.3,50.7,14.1,46.5,16,42.4z M82.8,65.2    c-2.2,20.7-29.1,24-45.3,19.6c-11.3-3.1-19.9-11.4-23-21.5c3.4,2.8,8.3,4.4,12.3,4.3c8-0.1,16.9-5,22.2-11.2    c1.8,6.9,9.9,11.9,16.5,12.6c6.3,0.7,13.5-2.2,17.5-7.4C83,62.9,82.9,64.1,82.8,65.2z"></path><path d="M30.4,56.7c0.1-0.2,0.2-0.4,0.3-0.6c0.6-2.3-1.7-4.3-3.9-3.6c-2.3,0.7-3.1,3.5-1.5,5.3C26.8,59.5,29.8,59,30.4,56.7z"></path><path d="M70,59.9c1.1-0.2,2-1.1,2.4-2.1c0.5-1.2,0.5-2.9-0.8-3.6c-0.3-0.2-0.7-0.2-1.1-0.2c-1.8-0.8-4.1,0.3-4.4,2.4    C65.8,58.6,67.9,60.4,70,59.9z"></path><path d="M53.8,70.5c-0.8,0.6-1.3,1.7-2.5,0.9c-0.7-0.4-1.1-1.2-1.5-1.9c0.4-0.2,0.8-0.4,1.2-0.8c0.6-0.7,0.8-1.6,0.3-2.4    c-0.2-0.4-0.7-0.7-1.1-0.9c-1.2-1.1-3.2-1.3-4.6-0.9c-1.2,0.4-1.9,1.8-1.2,3c0.5,0.8,1.3,1.5,2.2,1.9c-0.4,0.8-0.8,1.5-1.9,1.8    c-0.6,0.2-1.6,0.2-2.2-0.2c-0.5-0.3-0.5-1-1-1.5c-0.3-0.3-0.8-0.4-1.2-0.3c-0.1,0-0.1,0-0.2,0c-0.5,0.1-1,0.6-1.1,1.1    c-0.5,3.3,3.2,4.6,5.9,3.8c1.1-0.3,2.2-1.1,3.1-2.1c0.6,1.2,1.7,2.2,3,2.6c1.2,0.4,2.4,0.2,3.4-0.5c1-0.7,1.7-2.2,1-3.3    C55.1,70.4,54.3,70.1,53.8,70.5z"></path></g></g><g class="st0"><g class="st1"><path d="M79.6,14.8c-2.7-1.8-5.6-2.8-8-0.1c-2.2,2.5-4.1,6.2-5.3,9.8c-2.1-1.1-4.3-1.9-6.7-2.4c0.1,0,0.1,0,0.2-0.1    c1.5-0.5,3.3-0.6,4.7-1.4c0.7-0.4,0.8-1.7,0-2.1c-0.1-0.4-0.3-0.7-0.8-0.8C54.2,15.7,44,16.3,35,19.7c-0.7-2.7-2.2-5.4-4.3-7.1    c-2.9-2.4-5.7-1.3-8.6,0.5C16.5,16.7,4.9,26.5,8.2,34.3C9,36.3,11,38,13,39.6C8,50.4,8.3,63.5,15.8,73.4C25.9,87,44,90.5,60,88    c7-1.1,14.4-3.5,19.6-8.5c5.9-5.7,7.5-14,6.8-21.9C86,54,85.2,50.3,84,46.7c4.2-2.4,7.9-6,8.3-9.5C93.3,28.9,86.2,19.1,79.6,14.8z     M87.4,39.4c-0.6,1-2.6,2-3.6,2.6c-1.8,1.2-5,3.6-7.2,3.4c-7.1-0.6-1.6-17.5-0.7-21.1c0.5-1.9-2.5-2.8-3-0.8    c-1.3,5-7.7,24.3,1.1,25.8c1.9,0.3,4.4-0.1,6.9-1.1c1.6,5.1,2.3,10.6,1.7,15.9c-2.2,20.7-29.1,24-45.3,19.6    C18.6,78.6,7.4,59.6,15.6,41.4c0.5,0.4,1,0.7,1.4,1c2.3,1.8,6,5,9.1,3c3-1.9,3.5-7.4,4-10.6c0.9-5.7,0.5-11.3-0.8-16.9    c-0.4-1.8-3.1-1-2.7,0.7c1.3,6.3,1.5,12.8-0.2,19.1c-0.6,2.1-0.5,3.9-2.7,4c-1.7,0.1-2.8-1.1-4.2-2c-2-1.5-5.2-3.4-6.7-5.4    c-3.7-5,3.2-11.9,6.9-15c2.3-2,6-5.4,9.3-3.4c2.3,1.4,3.3,5,4.3,7.3c0.4,0.9,1.8,0.6,2.1-0.2c7.1-2.8,15.1-3.8,23-3.3    c-1.3,0.5-2.7,1.1-3.5,2.1c-0.2,0.2-0.3,0.4-0.4,0.6l0,0c-0.2,0.7,0.1,1.5,0.9,1.8c3.5,1.2,6.8,2.6,9.9,4.3c0,0.1,0,0.2-0.1,0.3    c-0.1,1,1.4,1.3,1.8,0.5c2.3-4.2,5.2-15.7,11.6-10.7c4.2,3.3,8.3,8.4,9.4,13.9C88.4,34.6,88.4,37.8,87.4,39.4z"></path><path d="M61.7,61.6C61.7,61.5,61.7,61.5,61.7,61.6c-0.8-1-1.7-1.8-2.7-2.4c-0.3-0.1-0.5-0.2-0.8-0.2C51.7,55,42.3,54.5,36,58.6    c-7.1,4.6-7.5,14-1.2,19.4c6.3,5.3,17.8,4.9,24.7,0.7c5.2-3.3,5.9-11.8,2.4-16.8C61.9,61.7,61.8,61.6,61.7,61.6z M53.4,76.6    c-5.5,1.6-13,2.1-17-2.9c-5.1-6.2,0.3-12.6,7-14c4.5-0.9,9.3-0.2,13.5,1.6c0.1,0.1,0.1,0.1,0.2,0.2C62.8,66.9,60.3,74.6,53.4,76.6    z"></path><path d="M39.1,67.4c-1.6,0.7-1.7,2.9-0.3,3.9c0.3,0.2,0.6,0.2,0.9,0.2c0.1,0.1,0.2,0.1,0.3,0.1c1.6,0.5,2.8-1.2,2.4-2.7    C42,67.6,40.4,66.8,39.1,67.4z"></path><path d="M55,65.8c-1-0.4-2-0.2-2.8,0.5c-0.8,0.6-1,1.6-0.7,2.5c0,0.2,0,0.3,0.1,0.5c0.5,2,3,2.3,4.4,1    C57.4,68.9,56.7,66.6,55,65.8z"></path><path d="M28.4,54.1c-0.5-1-1.7-1.6-2.8-1.5c-1.3,0.1-2.4,1-2.7,2.3c-0.7,2.7,2.4,4.9,4.7,3.4c1.2-0.9,1.7-2.4,1-3.8    C28.6,54.3,28.5,54.2,28.4,54.1z"></path><path d="M67.3,58.2c-0.1,0.8,0.2,1.6,0.7,2.3c0.1,0.1,0.2,0.3,0.3,0.4c0.9,0.9,2.2,1.1,3.4,0.7c2.4-1,3.5-4.4,0.9-5.9    C70.5,54.3,67.6,55.7,67.3,58.2z"></path></g></g><g class="st0"><g class="st1"><path d="M88.3,54.9C87,40.1,77,22.6,61.5,19.5c0.1,0,0.1,0,0.2-0.1c1.5-0.5,3.3-0.6,4.7-1.4c0.7-0.4,0.8-1.7,0-2.1    c-0.1-0.4-0.3-0.7-0.8-0.8c-16.1-3.7-34.1,0.4-45.2,13.3C10.2,40.2,8.2,58,17.7,70.7C27.9,84.3,46,87.8,61.9,85.4    c7-1.1,14.4-3.5,19.6-8.5C87.4,71.1,89,62.8,88.3,54.9z M84.5,61.4c-2.2,20.7-29.1,24-45.3,19.6C20.3,75.8,9,56.3,18,37.9    c7.9-16.2,25.6-21.8,42.4-20.8c-1.3,0.5-2.7,1.1-3.5,2.1c-0.2,0.2-0.3,0.4-0.4,0.6l0,0c-0.2,0.7,0.1,1.5,0.9,1.8    c8.5,2.9,15.9,6.7,20.9,14.4C83,43.3,85.4,52.8,84.5,61.4z"></path><path d="M57,60.6c-1.1,1.7-1.4,3.9-2.2,5.7c-0.9,2.1-1.9,4.1-3.3,6c-1,1.4-0.9,0.8-1.7-0.4c-0.6-0.9-1.1-1.8-1.7-2.8    c-1.3-2.2-2.6-4.3-3.9-6.5c-0.6-0.9-2.2-0.3-1.8,0.8c1.3,3.3,2.9,6.4,4.6,9.5c1,1.8,2.3,4.2,4.7,3.2c2-0.8,3.5-4,4.4-5.8    c1.4-2.6,3.4-6.1,3.2-9.1C59.3,60,57.7,59.5,57,60.6z"></path><path d="M33.6,48.8c-1.3,0-2.5,0.8-3.1,1.9c-0.6,1.3-0.3,2.8,0.8,3.8c0.8,0.7,1.9,0.9,2.9,0.7c0.7,0,1.4-0.2,1.9-0.7    c0.9-0.8,1.2-2.3,0.7-3.4C36.3,49.8,35,48.8,33.6,48.8z"></path><path d="M67.9,48.1c-2.1-1-4.9,0.4-4.9,2.8c0,0.7,0.2,1.4,0.6,1.9c0,0.1,0,0.1,0.1,0.2c0.9,2,4,1.8,5.2,0.3    C70.3,51.8,69.9,49.1,67.9,48.1z"></path></g></g><g class="st0"><g class="st1"><path d="M96,72c-2.4-2.5-5.5-4.1-8.9-5c0.5-3,0.6-6.2,0.4-9.3c-0.4-4.4-1.5-9-3.4-13.4c6.2-8.2,7.8-19.3,7.8-29.3    c0-1-0.8-1.8-1.8-1.8c-9.4,0-18,4.3-24.8,10.6c-1.5-0.6-3-1.1-4.6-1.4c0.1,0,0.1,0,0.2-0.1c1.5-0.5,3.3-0.6,4.7-1.4    c0.7-0.4,0.8-1.7,0-2.1c-0.1-0.4-0.3-0.7-0.8-0.8c-8.8-2-18.2-1.7-26.7,1.1c-3.3-3.7-7.5-6.2-12.2-7.7c-3.2-1.1-11.1-3.6-14.3-1.6    c-3.1,1.9-1.4,7.9-0.9,10.8c0.8,5.4,2.2,11.3,5,16.2c-5.8,10-6.8,22.4-1.4,32.7c-4.2,2.4-7.9,5.8-10.3,9.8    c-0.7,1.1,0.9,2.3,1.8,1.4c3.3-3.4,6.6-6.2,10.2-8.4c0.3,0.5,0.6,0.9,0.9,1.4c1.1,1.5,2.3,2.8,3.6,4.1c-2.1,2.9-3.8,5.9-5.3,9.1    c-0.6,1.4,1.3,2.6,2.1,1.2c1.6-3,3.4-5.7,5.4-8.3c10.4,8.5,25.1,10.6,38.4,8.6c7-1.1,14.4-3.5,19.6-8.5c0,0,0.1-0.1,0.1-0.1    c0.2,0.2,0.5,0.4,0.7,0.5c3.8,3.1,6.9,6.8,10,10.6c0.8,0.9,2.2-0.3,1.6-1.2c-2.3-4.1-6-8.5-10.4-12.1c1.7-2.3,2.9-4.9,3.7-7.6    c2.8,0.6,5.6,1.7,8.4,3.8C95.7,74.2,96.7,72.8,96,72z M83.6,64.2c-0.1,0.7-0.2,1.3-0.3,2c-4.7-0.6-9.6-0.1-13.8,1    c-1,0.3-0.8,1.7,0.2,1.8c4.5,0.2,8.7-0.2,12.7,0.1c-0.7,2.1-1.8,4-3.1,5.7c-3.4-2.3-7.1-3.9-10.6-4.5c-1-0.2-1.6,1-0.7,1.6    c3,1.9,6.2,3.4,9.2,5.2c-9.4,8.9-27.1,9.9-39,6.6c-5.1-1.4-9.6-3.8-13.3-7c2.1-2.5,4.3-4.9,6.6-7.3c0.7-0.7-0.2-1.9-1.1-1.4    c-2.9,1.8-5.4,4-7.7,6.6c-1.3-1.4-2.5-2.8-3.6-4.4c2.6-1.3,5.3-2.5,8.4-3.5c0.8-0.3,0.7-1.7-0.2-1.6c-3.3,0.2-6.6,1.1-9.8,2.5    c-4.3-7.9-5-17.6-0.4-27.1c0.3-0.5,0.5-1,0.8-1.6c0.6-0.1,1.2-0.6,0.9-1.3c-1.1-3.8-2.8-7.5-3.8-11.3c-0.7-2.6-2.9-9.4-2.1-12.5    c3.4,2.5,6.8,5,9.9,8c3.3,3.1,5.7,6.7,8.6,10.1c0.7,0.8,1.8-0.2,1.4-1.1c-3.3-7.2-10.1-14.2-17.1-18.4c3.3,0.3,8.9,2.5,10.3,3.1    c4,1.7,7.4,4.2,10.3,7.5c1.2,1.3,2.7,0.4,3.1-0.9c6.4-2,13.3-2.7,20.1-2.3c-1.3,0.5-2.7,1.1-3.5,2.1c-0.2,0.2-0.3,0.4-0.4,0.6l0,0    c-0.2,0.7,0.1,1.5,0.9,1.8c2.3,0.8,4.5,1.6,6.6,2.6c0.3,1.1,1.8,1.9,3,0.9c5.9-5.1,11.9-9.2,19.3-10.7c-2.4,1.7-4.6,3.8-6.4,5.6    c-3.2,3.2-6.7,7.2-8.3,11.5c-0.4,1.1,1.2,2,2,1.2c3-3.3,5.2-7.3,8.4-10.5c2.2-2.3,4.9-4.1,7.4-6.1c-0.2,9.2-3.8,17.3-7.7,25.8    c-0.3,0.6,0,1.3,0.5,1.6c0,0-0.1,0.1-0.1,0.1C83.3,52.1,84.2,58.3,83.6,64.2z"></path><path d="M58.8,68c-0.5,1.1-0.7,2.3-1.6,3.2c-1.1,1.1-2.8,1.5-4.3,1.1c-2.1-0.6-2.8-2.2-3.6-3.7c1.5-0.8,3-2.4,2.5-3.9    c-0.2-0.6-0.7-1.1-1.4-1.1c-1.4-0.1-1.7,1.2-2.7,1.8c-0.9,0.5-1.6-0.6-2.4-0.9c-0.6-0.2-1.2,0.3-1.2,0.9c0,1.3,0.9,2.5,2,3.1    c-0.8,1.5-1.5,2.9-3.3,3.6c-2.1,0.8-6.1,0.1-6.1-2.8c0-1.1-1.5-1.2-1.9-0.3c-1.7,4.5,2.7,7.6,6.9,6.6c2.1-0.5,4.5-2.1,5.8-4.2    c1.5,2.1,4.3,3.7,6.4,4c4,0.5,9.2-3.2,7.2-7.6C60.5,67.2,59.2,67.2,58.8,68z"></path><path d="M29.8,50.9c-0.6,0-1.3,0.2-1.7,0.7c-1.4,1.4-0.8,3.9,0.9,4.7c1.8,0.9,4.1-0.1,4.5-2.1c0.2-1-0.1-2-0.9-2.8    C31.9,50.8,30.8,50.5,29.8,50.9z"></path><path d="M66.7,54.1c-0.4,0-0.7,0.1-1,0.4c-0.9-0.1-1.9,0.4-2.4,1.3c-0.7,1.1-0.5,2.5,0.2,3.5c0.8,1,2,1.3,3.3,1.1    c2.5-0.5,3.4-3.7,1.6-5.5C68,54.4,67.4,54.1,66.7,54.1z"></path></g></g><g><g><path d="M79.6,14.8c-2.7-1.8-5.6-2.8-8-0.1c-2.2,2.5-4.1,6.2-5.3,9.8c-2.1-1.1-4.3-1.9-6.7-2.4c0.1,0,0.1,0,0.2-0.1    c1.5-0.5,3.3-0.6,4.7-1.4c0.7-0.4,0.8-1.7,0-2.1c-0.1-0.4-0.3-0.7-0.8-0.8C54.2,15.7,44,16.3,35,19.7c-0.7-2.7-2.2-5.4-4.3-7.1    c-2.9-2.4-5.7-1.3-8.6,0.5C16.5,16.7,4.9,26.5,8.2,34.3C9,36.3,11,38,13,39.6C8,50.4,8.3,63.5,15.8,73.4C25.9,87,44,90.5,60,88    c7-1.1,14.4-3.5,19.6-8.5c5.9-5.7,7.5-14,6.8-21.9C86,54,85.2,50.3,84,46.7c4.2-2.4,7.9-6,8.3-9.5C93.3,28.9,86.2,19.1,79.6,14.8z     M87.4,39.4c-0.6,1-2.6,2-3.6,2.6c-1.8,1.2-5,3.6-7.2,3.4c-7.1-0.6-1.6-17.5-0.7-21.1c0.5-1.9-2.5-2.8-3-0.8    c-1.3,5-7.7,24.3,1.1,25.8c1.9,0.3,4.4-0.1,6.9-1.1c1.6,5.1,2.3,10.6,1.7,15.9c-2.2,20.7-29.1,24-45.3,19.6    C18.6,78.6,7.4,59.6,15.6,41.4c0.5,0.4,1,0.7,1.4,1c2.3,1.8,6,5,9.1,3c3-1.9,3.5-7.4,4-10.6c0.9-5.7,0.5-11.3-0.8-16.9    c-0.4-1.8-3.1-1-2.7,0.7c1.3,6.3,1.5,12.8-0.2,19.1c-0.6,2.1-0.5,3.9-2.7,4c-1.7,0.1-2.8-1.1-4.2-2c-2-1.5-5.2-3.4-6.7-5.4    c-3.7-5,3.2-11.9,6.9-15c2.3-2,6-5.4,9.3-3.4c2.3,1.4,3.3,5,4.3,7.3c0.4,0.9,1.8,0.6,2.1-0.2c7.1-2.8,15.1-3.8,23-3.3    c-1.3,0.5-2.7,1.1-3.5,2.1c-0.2,0.2-0.3,0.4-0.4,0.6l0,0c-0.2,0.7,0.1,1.5,0.9,1.8c3.5,1.2,6.8,2.6,9.9,4.3c0,0.1,0,0.2-0.1,0.3    c-0.1,1,1.4,1.3,1.8,0.5c2.3-4.2,5.2-15.7,11.6-10.7c4.2,3.3,8.3,8.4,9.4,13.9C88.4,34.6,88.4,37.8,87.4,39.4z"></path><path d="M63.8,68c-0.2,3.1-1.4,6-4.9,6.4c-3.2,0.4-4.9-1.6-6.1-4.1c1.9-0.2,4-0.8,4.7-2.4c0.3-0.6,0.5-1.5,0-2.1    c-0.1-0.1-0.2-0.2-0.2-0.3c-0.6-0.8-1.6-1.1-2.4-0.7c-3.3-0.5-12.8-1.2-10.4,3.8c0.9,2,3.7,2,5.8,1.9c-0.5,2.8-2.5,4.9-5.6,5    c-3.4,0.1-5.2-2-6.2-5c-0.2-0.6-1-0.7-1.3-0.2c-2.6,4.9,3.7,8.8,7.9,8.6c3-0.2,5.7-1.9,7-4.4c1.7,2.1,4.5,3.4,7.2,3.2    c4.9-0.3,9.1-5.4,7.3-10.2C66,66.1,63.9,66.4,63.8,68z"></path><path d="M30.1,56.1c-1.3,0.7-2,2.2-1.7,3.7c0.3,1.6,1.9,2.7,3.5,2.6c0.7,0,1.4-0.3,1.9-0.8c0.3-0.2,0.6-0.5,0.8-0.9    c0.8-1.3,0.5-2.9-0.5-4C33.1,55.7,31.5,55.3,30.1,56.1z"></path><path d="M66.8,57.1c0,0.1-0.1,0.2-0.1,0.2c-0.8,1.1-0.9,2.8,0.2,3.9c1.7,1.7,4.8,0.8,5.2-1.6c0.2-1.3-0.3-2.7-1.6-3.3    C69.3,55.7,67.5,55.8,66.8,57.1z"></path></g></g><g class="st0"><g class="st1"><path d="M88.3,55.9c-0.5-5.4-2.1-11.1-4.7-16.4c4.7-4.7,6.4-14.4,1.2-18.9c-4.8-4.2-12.7-2.4-16.2,2.6c-2.2-1.2-4.6-2.1-7.1-2.6    c0.1,0,0.1,0,0.2-0.1c1.5-0.5,3.3-0.6,4.7-1.4c0.7-0.4,0.8-1.7,0-2.1c-0.1-0.4-0.3-0.7-0.8-0.8c-9.7-2.2-20.1-1.6-29.3,2.1    C32.4,12,22.7,11.1,17,15.9c-4.5,3.8-4.9,14.2,0.5,17.4C10,44.9,9.2,60.4,17.7,71.8C27.9,85.4,46,88.9,61.9,86.4    c7-1.1,14.4-3.5,19.6-8.5C87.4,72.2,89,63.9,88.3,55.9z M84.5,62.5c-2.2,20.7-29.1,24-45.3,19.6C20.3,76.9,9,57.4,18,39    c0.9-1.9,2-3.7,3.2-5.4c0,0,0,0,0,0c0.4-0.5,0.5-1.1-0.1-1.5c-2.3-1.8-4.1-5-4.2-8.1c0.6-2,2.5-3.4,4.7-3.1    c2.6,0.4,4.6,2.5,5.1,5.1c0.4,1.9,3.5,0.9,2.7-1.1c-1.6-3.8-4.6-7.2-9.2-6.6c0,0,0,0,0,0c0,0,0,0,0,0c5.2-2.7,10.7-0.7,14.3,3.5    c0.6,0.8,1.7,0.6,2.4,0c7.3-3,15.5-4,23.6-3.5c-1.3,0.5-2.7,1.1-3.5,2.1c-0.2,0.2-0.3,0.4-0.4,0.6l0,0c-0.2,0.7,0.1,1.5,0.9,1.8    c3.6,1.2,6.9,2.6,10,4.3c0.5,0.8,1.6,1.1,2.4,0.4c3.1-3.1,7.5-7.8,12-4.1c-0.6-0.1-1.1-0.1-1.6,0c-3.4,0.5-6,3.3-7.3,6.3    c-0.8,1.8,1.8,3.5,2.7,1.6c0.9-1.9,1.9-3.9,3.9-4.8c1.9-0.8,3.1-0.2,4.4,0.6c0.7,3.8-1.9,8.5-4.3,11c-1,1-0.3,2.6,0.8,3    C83.7,47.7,85.2,55.3,84.5,62.5z"></path><path d="M64.4,65.5c-0.4-0.9-1.6-0.8-2.3-0.3c-1.8,1.6-2.1,4.2-5.1,4.1c-2.5-0.1-3.1-1.8-3.8-3.5c0-0.2,0-0.4-0.1-0.6    c0.8-0.6,1.5-1.5,2.1-2.3c1.2-1.6,1.9-3.4,2.7-5.2c0.7-1.7-2.2-3-3.1-1.3c-0.5,1.1-1.2,2.1-1.9,3.1c-0.4,0.5-0.7,1.1-1.1,1.6    c-0.1,0.2-0.3,0.3-0.4,0.5c-0.7-0.5-1.7-0.9-2.4-1.4c-1.1-0.8-2.2-1.7-3.4-2.3c-1.1-0.6-2.4,0.6-1.8,1.8c0.9,1.6,2.3,2.8,3.7,3.8    c0.8,0.6,1.7,1.4,2.7,1.9c-0.1,0.2-0.1,0.4-0.1,0.6c-0.9,2.3-2,4.6-4.8,5c-3.4,0.6-4.3-1.8-5.5-4.3c-0.3-0.6-1.4-0.7-1.7,0    c-1.7,4,3,7.5,6.6,7.5c0.6,0,1.2-0.1,1.8-0.3c0.2,0.6,0.4,1.2,0.6,1.8c0.4,1,0.7,2.9,1.4,3.7c0.7,0.8,1.7,0.7,2.6,0.6    c1.3-0.1,2.7-0.2,4-0.2c1,0,1.8-0.8,1.8-1.8c0.1-1.6,0.4-3.3,0.5-4.9C61.2,73,66.2,69.5,64.4,65.5z M50.4,76.5    c-0.4-1.3-0.8-2.6-1.5-3.7c1.1-0.7,2-1.6,2.7-2.6c0.8,0.8,1.7,1.6,2.7,2.1c-0.3,1.3-0.5,2.6-0.7,3.9    C52.6,76.1,51.5,76.2,50.4,76.5z"></path><path d="M32.7,50.9c-3.3-0.9-6.4,2.5-4.8,5.6c0.5,0.9,1.3,1.6,2.3,1.9c1.2,0.6,2.6,0.6,3.9-0.2C36.8,56.2,35.9,51.7,32.7,50.9z"></path><path d="M69.8,50.1c-2.3-0.7-4.8,0.9-4.4,3.3c-0.1,0.4-0.2,0.8-0.2,1.2c0,2,1.8,3.6,3.7,3.7c1.8,0,3.4-1.3,3.9-3    C73.4,53.1,71.9,50.8,69.8,50.1z"></path></g></g><g class="st0"><g class="st1"><path d="M88.3,55.9c-0.5-5.4-2.1-11.1-4.7-16.4c4.7-4.7,6.4-14.4,1.2-18.9c-4.8-4.2-12.7-2.4-16.2,2.6c-2.2-1.2-4.6-2.1-7.1-2.6    c0.1,0,0.1,0,0.2-0.1c1.5-0.5,3.3-0.6,4.7-1.4c0.7-0.4,0.8-1.7,0-2.1c-0.1-0.4-0.3-0.7-0.8-0.8c-9.7-2.2-20.1-1.6-29.3,2.1    C32.4,12,22.7,11.1,17,15.9c-4.5,3.8-4.9,14.2,0.5,17.4C10,44.9,9.2,60.4,17.7,71.8C27.9,85.4,46,88.9,61.9,86.4    c7-1.1,14.4-3.5,19.6-8.5C87.4,72.2,89,63.9,88.3,55.9z M84.5,62.5c-2.2,20.7-29.1,24-45.3,19.6C20.3,76.9,9,57.4,18,39    c0.9-1.9,2-3.7,3.2-5.4c0,0,0,0,0,0c0.4-0.5,0.5-1.1-0.1-1.5c-2.3-1.8-4.1-5-4.2-8.1c0.6-2,2.5-3.4,4.7-3.1    c2.6,0.4,4.6,2.5,5.1,5.1c0.4,1.9,3.5,0.9,2.7-1.1c-1.6-3.8-4.6-7.2-9.2-6.6c0,0,0,0,0,0c0,0,0,0,0,0c5.2-2.7,10.7-0.7,14.3,3.5    c0.6,0.8,1.7,0.6,2.4,0c7.3-3,15.5-4,23.6-3.5c-1.3,0.5-2.7,1.1-3.5,2.1c-0.2,0.2-0.3,0.4-0.4,0.6l0,0c-0.2,0.7,0.1,1.5,0.9,1.8    c3.6,1.2,6.9,2.6,10,4.3c0.5,0.8,1.6,1.1,2.4,0.4c3.1-3.1,7.5-7.8,12-4.1c-0.6-0.1-1.1-0.1-1.6,0c-3.4,0.5-6,3.3-7.3,6.3    c-0.8,1.8,1.8,3.5,2.7,1.6c0.9-1.9,1.9-3.9,3.9-4.8c1.9-0.8,3.1-0.2,4.4,0.6c0.7,3.8-1.9,8.5-4.3,11c-1,1-0.3,2.6,0.8,3    C83.7,47.7,85.2,55.3,84.5,62.5z"></path><path d="M60.1,62c-0.6,0.9-0.6,1.9-1,2.9c-0.5,1.1-1.4,2.1-2.7,2.4c-1.1,0.3-2.3,0.1-3.1-0.8c-0.7-0.7-0.8-1.7-0.9-2.6    c2.3-0.9,4.8-3.2,5-5.3c0.3-3.1-4.3-3.5-6.4-3.7c-2.2-0.2-7.2-0.1-6.9,3.3c-0.1,0.2-0.1,0.5,0.1,0.8c1.4,1.8,2.5,4.2,4.6,5    c-0.9,2.2-2.4,4-5.1,3.4c-2.7-0.5-3.5-2.7-4.8-4.7c-0.6-0.9-1.9-0.5-2,0.5c-0.4,4.2,4.1,7.9,8.1,7.9c2.2,0,4.3-1.2,5.5-2.9    C51.9,69.9,54,71,56,71c2.1-0.1,4.2-1.2,5.4-2.9c1.2-1.6,2.3-4.3,1-6C61.8,61.2,60.7,61.2,60.1,62z M49.5,61    c-1-0.3-1.9-1.3-2.8-2.2c1-1,5.1-0.9,7-0.2c-0.3,0.5-0.9,0.9-1.2,1.2C51.6,60.7,50.9,61.5,49.5,61z"></path><path d="M44.6,47.1c2.6-5.9,2.3-14.7-5.6-15.5c-0.5,0-0.8,0.1-1,0.3C31.2,32,25,36.6,22.2,42.8c-2.6,5.7-2.4,15,5.6,15.9    C34.9,59.5,41.9,53.2,44.6,47.1z M25.6,54.1c-4-3.7-0.3-11.1,2.7-14.3c2.9-3.1,6.6-4.4,10.6-5.4c0.1,0,0.1,0,0.2,0    c5.3,0.6,3.7,7.2,2.6,9.9c-0.8,2.1-2.1,4.1-3.6,5.8C35.4,52.9,29.3,57.5,25.6,54.1z"></path><path d="M73.2,40.9c-3.7-4.5-10.2-8.5-15.6-4.2c-5.7,4.5-3.6,12.9,0.6,17.6c3.7,4.1,12.2,8.6,17.4,4.6c5.4-4.2,2.2-13.2-1.1-17.5    C74.1,41,73.6,40.8,73.2,40.9z M74.4,55.1C71.5,59.4,64,55,61.6,52.6c-3-3-5.4-8.2-2.8-12.2c3.8-5.6,9.7-0.6,13.5,2.3    C74.5,45.9,76.8,51.4,74.4,55.1z"></path><path d="M35.5,46.6c-0.5-0.8-1.5-1.4-2.4-1.3c-1.2,0.1-2.4,1-2.7,2.2c-0.3,1.3,0.3,2.6,1.5,3.3c1.1,0.6,2.7,0.5,3.5-0.5    C36.3,49.4,36.6,47.6,35.5,46.6C35.5,46.7,35.5,46.6,35.5,46.6z"></path><path d="M70.6,49.9C70.6,49.9,70.6,49.9,70.6,49.9c-0.1-0.2-0.1-0.3-0.2-0.4c0,0,0,0,0,0c-0.1-0.1-0.1-0.2-0.2-0.4c0,0,0,0,0,0    c-0.9-1.1-2.6-1.5-3.8-0.4c-0.8,0.8-1.1,2.1-0.5,3.1c0.5,0.9,1.4,1.4,2.4,1.4c1.2,0,2.1-0.9,2.4-1.9c0.1-0.4,0.1-0.8,0-1.2    C70.6,50,70.6,50,70.6,49.9z"></path></g></g><g class="st0"><g class="st1"><path d="M82.7,17c-6.4-2.5-15.4,0.8-17,7.4c-1.8-0.8-3.7-1.5-5.7-1.9c0.1,0,0.1,0,0.2-0.1c1.5-0.5,3.3-0.6,4.7-1.4    c0.7-0.4,0.8-1.7,0-2.1c-0.1-0.4-0.3-0.7-0.8-0.8c-8-1.8-16.5-1.7-24.4,0.5c-0.7-3-3.4-5.6-6.2-6.8c-4.5-2-9.8-1-14,1.2    C9.4,18.2,3.8,30.1,5.5,41c0.6,3.7,2.3,7.1,4.8,9.7c-1,8,0.8,16.3,5.9,23.2c10.2,13.6,28.2,17.1,44.2,14.6    c7-1.1,14.4-3.5,19.6-8.5c5.9-5.7,7.5-14,6.8-21.9c-0.1-1-0.2-2.1-0.4-3.2c4.3-2.8,7.6-8.4,8.2-12.9C95.8,32.5,92.1,20.7,82.7,17z     M91.4,41.2c-0.4,3.8-1.6,7.4-4.9,9.7c-4.1,2.9-10.1,3.4-11.3-3c-1.1-5.5,0.2-11.4,2.6-16.5c1,3,2.3,5.8,4.3,8.4    c0.9,1.3,2.8-0.1,1.7-1.3c-2.7-3.2-4.3-6.6-4.3-10.8c0-1.4-1.9-1.9-2.6-0.7c-3.7,6.4-9.7,22.9-1.3,28.1c2.4,1.5,4.9,1.8,7.1,1.2    c0.3,2.7,0.4,5.5,0.1,8.1c-2.2,20.7-29.1,24-45.3,19.6c-14.7-4-24.8-16.8-24.2-30.9c4.2,2.7,9.5,3.1,14.5-0.6    c8.9-6.6,8.1-20.5,1-28c-0.6-0.6-1.8-0.3-2,0.5c-1.3,5.2-5.9,7.7-10.9,7.7c-1.9,0-1.9,2.8,0,2.9c5.8,0.3,10.3-3.2,12.5-8.2    c4.8,5.8,3.7,16-1.9,21.1c-8.9,7.9-17.2-2.7-17.2-11.5c0-6.6,2.9-13.2,7.7-17.6c2.9-2.7,6.9-4.7,10.9-4.9c5.7-0.2,7.8,2.9,9.7,7.6    c0.4,0.9,1.5,0.9,1.8,0.1c6.2-1.9,12.9-2.5,19.4-2.1c-1.3,0.5-2.7,1.1-3.5,2.1c-0.2,0.2-0.3,0.4-0.4,0.6l0,0    c-0.2,0.7,0.1,1.5,0.9,1.8c3.6,1.2,6.9,2.6,10,4.3c0,0.1,0,0.2,0.1,0.2c0.4,1.2,2.1,0.9,2.1-0.3c0.6-8.4,8.8-11.6,15.7-7.2    C89.6,25.8,92.1,34.4,91.4,41.2z"></path><path d="M53.8,70.6c-0.4-0.4-0.7-0.8-1-1.3c0.1-0.1,0.2-0.2,0.3-0.3c0.9-1,2-2.4,2.3-3.7c0.3-1.3-1.1-2.7-2.4-1.8    c-0.7,0.5-1.1,1-1.6,1.7c-0.2,0.3-0.4,0.6-0.6,0.9c-0.3-0.4-0.8-0.9-0.9-1c-0.5-0.7-1-1.3-1.7-1.9c-0.8-0.7-2.1,0-1.8,1    c0.3,1.3,1,2.4,1.6,3.6c0.3,0.5,0.6,1.1,1,1.5c-0.4,0.7-0.8,1.3-1.4,1.8c-1.3,0.9-3.1,0.5-4.2,1.6c-0.5,0.5-0.7,1.3-0.2,1.9    c1.6,2.2,5,0.9,6.7-0.5c0.3-0.3,0.7-0.7,1-1.1c0,0,0.1,0.1,0.1,0.1c1.1,1.3,3.5,2.9,5.4,2.2c1-0.4,1.9-2,0.8-2.9    C56.1,71.6,54.8,71.5,53.8,70.6z"></path><path d="M34.5,57.8c-0.6-0.4-1.3-0.4-2-0.2c-2.1,0-3.8,2.1-3.1,4.2c0.8,2.4,3.9,3.2,5.7,1.3c0.9-0.9,1.2-2.3,0.7-3.5    C35.6,58.8,35.1,58.2,34.5,57.8z"></path><path d="M68.1,59.6c-2.5-1.2-5.4,1.2-4.9,3.9c0.5,2.4,3.4,3.5,5.5,2.3c1.1-0.6,1.8-2,1.7-3.3c0-0.8-0.3-1.6-0.8-2.2    C69.2,59.9,68.7,59.7,68.1,59.6z"></path></g></g>
    </symbol>
</svg>
